<?xml version="1.0" encoding="UTF-8"?>
<svg xmlns="http://www.w3.org/2000/svg" xmlns:xlink="http://www.w3.org/1999/xlink" width="1080pt" height="1080pt" viewBox="0 0 1080 1080">
<defs>
<filter id="filter-remove-color" x="0%" y="0%" width="100%" height="100%">
<feColorMatrix color-interpolation-filters="sRGB" values="0 0 0 0 1 0 0 0 0 1 0 0 0 0 1 0 0 0 1 0" />
</filter>
<mask id="mask-0">
<g filter="url(#filter-remove-color)">
<rect x="-108" y="-108" width="1296" height="1296" fill="rgb(0%, 0%, 0%)" fill-opacity="0.899994"/>
</g>
</mask>
<clipPath id="clip-0">
<path clip-rule="nonzero" d="M 335 0.878906 L 486 0.878906 L 486 428 L 335 428 Z M 335 0.878906 "/>
</clipPath>
<clipPath id="clip-1">
<path clip-rule="nonzero" d="M 205 0.878906 L 428 0.878906 L 428 428 L 205 428 Z M 205 0.878906 "/>
</clipPath>
<clipPath id="clip-2">
<path clip-rule="nonzero" d="M 0.839844 216 L 428 216 L 428 441 L 0.839844 441 Z M 0.839844 216 "/>
</clipPath>
<clipPath id="clip-3">
<path clip-rule="nonzero" d="M 0.839844 354 L 428 354 L 428 493 L 0.839844 493 Z M 0.839844 354 "/>
</clipPath>
<clipPath id="clip-4">
<path clip-rule="nonzero" d="M 253 381 L 450 381 L 450 802.789062 L 253 802.789062 Z M 253 381 "/>
</clipPath>
<clipPath id="clip-5">
<path clip-rule="nonzero" d="M 381 381 L 530 381 L 530 802.789062 L 381 802.789062 Z M 381 381 "/>
</clipPath>
<clipPath id="clip-6">
<path clip-rule="nonzero" d="M 381 348 L 807.789062 348 L 807.789062 520 L 381 520 Z M 381 348 "/>
</clipPath>
<clipPath id="clip-7">
<path clip-rule="nonzero" d="M 381 240 L 807.789062 240 L 807.789062 428 L 381 428 Z M 381 240 "/>
</clipPath>
<clipPath id="clip-8">
<rect x="0" y="0" width="808" height="803"/>
</clipPath>
<g id="source-5" clip-path="url(#clip-8)">
<g clip-path="url(#clip-0)">
<path fill="none" stroke-width="1.629" stroke-linecap="butt" stroke-linejoin="miter" stroke="rgb(100%, 100%, 100%)" stroke-opacity="1" stroke-miterlimit="10" d="M -0.00094375 0.00189375 C 27.698275 -30.955137 48.881869 -70.060606 47.249056 -112.423887 C 45.62015 -133.603575 42.362337 -153.158262 30.956087 -172.709044 C 21.18265 -189.002012 8.147494 -203.666075 -1.62985 -219.959044 C -34.215788 -280.2442 -14.665006 -351.935606 26.069369 -402.443419 C 13.034212 -381.263731 1.627962 -358.451231 -3.258756 -334.013731 C -4.887663 -319.349669 -6.516569 -306.314512 -4.887663 -291.65045 C -1.62985 -265.580137 8.147494 -241.142637 26.069369 -221.58795 C 29.327181 -218.330137 34.217806 -215.072325 37.475619 -210.1817 C 39.104525 -208.552794 42.362337 -206.923887 43.991244 -205.294981 C 48.881869 -197.15045 57.0264 -193.888731 60.284212 -185.7442 C 61.913119 -180.853575 65.174837 -175.966856 68.43265 -171.080137 C 99.389681 -115.6817 86.354525 -50.509825 55.397494 0.00189375 Z M -0.00094375 0.00189375 " transform="matrix(1, 0, 0, -1, 376.4736, 1.6933)"/>
</g>
<g clip-path="url(#clip-1)">
<path fill="none" stroke-width="1.629" stroke-linecap="butt" stroke-linejoin="miter" stroke="rgb(100%, 100%, 100%)" stroke-opacity="1" stroke-miterlimit="10" d="M -0.001575 0.00071875 C 4.88905 -3.257094 11.404675 -6.518813 16.291394 -9.776625 C 21.182019 -14.663344 26.068737 -17.921156 30.955456 -21.182875 C 48.881237 -34.214125 57.025769 -52.139906 68.432019 -70.061781 C 81.467175 -94.499281 84.724987 -122.1985 81.467175 -149.897719 C 78.209362 -174.339125 68.432019 -197.147719 70.060925 -221.589125 C 76.57655 -285.132094 120.568737 -335.643813 175.967175 -361.710219 C 122.20155 -332.382094 81.467175 -273.725844 96.131237 -210.182875 C 102.646862 -177.596938 117.310925 -148.268813 117.310925 -114.053969 C 115.682019 -70.061781 97.760144 -26.069594 65.174206 4.887437 C 60.283581 9.774156 53.767956 13.035875 50.510144 19.5515 C 34.217175 11.403062 16.291394 6.516344 -0.001575 0.00071875 Z M -0.001575 0.00071875 " transform="matrix(1, 0, 0, -1, 228.2047, 42.4265)"/>
</g>
<path fill="none" stroke-width="1.629" stroke-linecap="butt" stroke-linejoin="miter" stroke="rgb(100%, 100%, 100%)" stroke-opacity="1" stroke-miterlimit="10" d="M 0.000875 -0.00080625 C 50.508687 -4.887525 97.758687 -34.21565 120.571187 -79.836744 C 130.344625 -101.016431 131.977437 -125.457838 138.493062 -148.270338 C 161.301656 -219.957838 234.621969 -260.692213 306.313375 -262.321119 C 234.621969 -255.805494 167.821187 -202.035963 161.301656 -128.71565 C 167.821187 -53.766431 112.42275 16.292162 40.731344 37.475756 C 26.067281 26.069506 13.036031 13.03435 0.000875 -0.00080625 Z M 0.000875 -0.00080625 " transform="matrix(1, 0, 0, -1, 97.8585, 141.8156)"/>
<g clip-path="url(#clip-2)">
<path fill="none" stroke-width="1.629" stroke-linecap="butt" stroke-linejoin="miter" stroke="rgb(100%, 100%, 100%)" stroke-opacity="1" stroke-miterlimit="10" d="M -0.00108125 0.0001375 C 55.397356 24.441544 123.83095 16.293106 162.932513 -32.5858 C 185.741106 -63.542831 210.182513 -92.870956 244.397356 -107.535019 C 276.9872 -120.570175 312.83095 -123.827988 348.6747 -118.941269 C 355.194231 -117.312363 361.709856 -115.683456 369.858294 -114.05455 C 376.373919 -112.425644 382.89345 -109.163925 389.409075 -107.535019 C 325.866106 -128.718613 249.287981 -112.425644 208.553606 -52.136581 C 195.51845 -32.5858 192.260638 -11.406113 175.967669 4.886856 C 172.709856 8.148575 167.819231 11.406387 164.561419 16.293106 C 125.459856 52.136856 71.690325 63.543106 21.182513 53.769669 C 14.662981 35.843887 6.51845 17.922012 -0.00108125 0.0001375 Z M -0.00108125 0.0001375 " transform="matrix(1, 0, 0, -1, 14.7628, 296.6017)"/>
</g>
<g clip-path="url(#clip-3)">
<path fill="none" stroke-width="1.629" stroke-linecap="butt" stroke-linejoin="miter" stroke="rgb(100%, 100%, 100%)" stroke-opacity="1" stroke-miterlimit="10" d="M 0.0010875 0.00180625 C 47.251088 52.138525 130.344838 71.689306 192.262806 34.21665 C 254.176869 -16.291163 347.047963 8.146337 397.555775 65.173681 C 353.563588 24.439306 286.762806 6.517431 232.993275 39.103369 C 216.700306 48.880712 202.036244 61.915869 185.743275 71.689306 C 169.450306 79.837744 153.157338 86.353369 135.235463 89.611181 C 84.723744 97.759619 34.215931 83.095556 -4.889537 52.138525 C -1.627819 34.21665 0.0010875 17.923681 0.0010875 0.00180625 Z M 0.0010875 0.00180625 " transform="matrix(1, 0, 0, -1, 6.6161, 469.3104)"/>
</g>
<path fill="none" stroke-width="1.629" stroke-linecap="butt" stroke-linejoin="miter" stroke="rgb(100%, 100%, 100%)" stroke-opacity="1" stroke-miterlimit="10" d="M -0.00158125 0.0002875 C 24.439825 57.027631 84.724981 97.7581 148.26795 92.871381 C 184.115606 83.097944 221.588263 87.984663 254.1742 104.277631 C 259.064825 107.535444 263.951544 109.16435 268.838263 112.422163 C 296.537481 131.97685 316.088263 153.156538 330.752325 182.484663 C 332.381231 189.000288 335.64295 193.890913 338.900763 200.406538 C 340.529669 203.66435 340.529669 206.926069 342.158575 210.183881 C 324.2367 171.078413 293.279669 136.863569 252.545294 120.5706 C 237.881231 115.683881 221.588263 112.422163 206.9242 114.051069 C 177.596075 114.051069 148.26795 125.457319 118.939825 127.086225 C 89.6117 127.086225 60.283575 118.941694 34.217169 102.648725 C 11.404669 87.984663 -8.146112 70.062788 -24.439081 48.879194 C -14.665644 32.586225 -11.403925 14.66435 -0.00158125 0.0002875 Z M -0.00158125 0.0002875 " transform="matrix(1, 0, 0, -1, 62.0133, 614.3206)"/>
<path fill="none" stroke-width="1.629" stroke-linecap="butt" stroke-linejoin="miter" stroke="rgb(100%, 100%, 100%)" stroke-opacity="1" stroke-miterlimit="10" d="M 0.00010625 0.00066875 C 0.00010625 26.067075 6.515731 52.137388 17.921981 76.578794 C 32.586044 104.278013 55.398544 128.715513 86.355575 138.492856 C 125.457138 149.899106 161.304794 164.563169 187.3712 197.149106 C 219.957138 236.254575 231.363388 283.504575 228.105575 332.383481 C 226.476669 286.762388 211.812606 242.7702 179.226669 210.184263 C 161.304794 193.891294 141.750106 182.485044 117.312606 175.965513 C 101.019638 172.7077 86.355575 172.7077 70.062606 167.820981 C 11.406356 149.899106 -30.956925 96.129575 -42.363175 37.473325 C -35.843644 29.328794 -26.070206 26.067075 -19.550675 16.293638 C -13.03505 9.774106 -4.886612 6.516294 0.00010625 0.00066875 Z M 0.00010625 0.00066875 " transform="matrix(1, 0, 0, -1, 176.0663, 736.5202)"/>
<g clip-path="url(#clip-4)">
<path fill="none" stroke-width="1.629" stroke-linecap="butt" stroke-linejoin="miter" stroke="rgb(100%, 100%, 100%)" stroke-opacity="1" stroke-miterlimit="10" d="M 0.0001125 0.00189375 C -30.956919 50.509706 -32.585825 122.201113 11.406363 166.189394 C 35.843863 190.6308 60.285269 213.4433 73.320425 246.029238 C 91.2423 296.53705 86.355581 350.306581 61.914175 397.556581 C 76.578238 363.341738 79.83605 325.865175 71.691519 288.392519 C 63.543081 254.173769 43.9923 228.107363 17.921988 206.923769 C -55.398325 175.966738 -81.464731 86.353456 -57.027231 14.66205 C -39.105356 8.146425 -19.550669 3.259706 0.0001125 0.00189375 Z M 0.0001125 0.00189375 " transform="matrix(1, 0, 0, -1, 342.2577, 801.6933)"/>
</g>
<g clip-path="url(#clip-5)">
<path fill="none" stroke-width="1.629" stroke-linecap="butt" stroke-linejoin="miter" stroke="rgb(100%, 100%, 100%)" stroke-opacity="1" stroke-miterlimit="10" d="M 0.0005125 -0.00056875 C -27.698706 21.179119 -45.620581 50.507244 -57.026831 83.097088 C -60.284644 96.128338 -63.542456 110.7924 -63.542456 123.827556 C -63.542456 136.862713 -61.91355 151.526775 -57.026831 164.561931 C -50.5073 182.483806 -40.733862 198.776775 -34.214331 216.702556 C -14.66355 281.874431 -48.878394 351.936931 -102.647925 387.780681 C -57.026831 348.675213 -30.956519 283.503338 -58.655737 226.475994 C -73.3198 197.147869 -92.870581 169.44865 -97.761206 135.233806 C -101.019019 102.647869 -97.761206 71.690838 -84.72605 42.362713 C -81.464331 37.475994 -79.835425 30.956463 -76.577612 24.440838 C -73.3198 17.921306 -68.433081 13.034588 -65.171362 6.515056 C -61.91355 -0.00056875 -57.026831 -4.887287 -52.136206 -9.777912 C -35.843237 -4.887287 -17.921362 -4.887287 0.0005125 -0.00056875 Z M 0.0005125 -0.00056875 " transform="matrix(1, 0, 0, -1, 506.8198, 791.9174)"/>
</g>
<path fill="none" stroke-width="1.629" stroke-linecap="butt" stroke-linejoin="miter" stroke="rgb(100%, 100%, 100%)" stroke-opacity="1" stroke-miterlimit="10" d="M -0.0010875 0.001225 C -42.364369 16.294194 -81.465931 47.251225 -97.7589 91.243412 C -101.016713 104.278569 -104.278431 117.313725 -105.907338 130.344975 C -107.536244 143.380131 -102.649525 156.415287 -104.278431 169.450444 C -110.794056 244.399662 -171.079213 306.313725 -244.399525 319.348881 C -202.036244 306.313725 -166.192494 278.614506 -145.0089 239.512944 C -127.087025 205.294194 -131.97765 167.821537 -135.235463 131.977787 C -143.379994 66.802006 -102.649525 3.259037 -45.622181 -27.697994 C -30.958119 -17.924556 -16.294056 -8.147213 -0.0010875 0.001225 Z M -0.0010875 0.001225 " transform="matrix(1, 0, 0, -1, 648.5714, 723.4856)"/>
<path fill="none" stroke-width="1.629" stroke-linecap="butt" stroke-linejoin="miter" stroke="rgb(100%, 100%, 100%)" stroke-opacity="1" stroke-miterlimit="10" d="M 0.0014875 -0.001325 C -57.025856 -9.774762 -117.311012 14.662738 -146.639137 66.803363 C -156.416481 86.354144 -162.932106 105.904925 -175.967262 125.459613 C -192.260231 148.268206 -213.443825 162.932269 -237.881325 175.967425 C -275.357887 192.260394 -316.088356 197.147113 -355.193825 189.002581 C -286.760231 198.779925 -210.182106 162.932269 -189.002419 94.502581 C -177.596169 61.912738 -169.451637 29.3268 -146.639137 4.8893 C -115.682106 -26.067731 -74.947731 -45.622419 -32.588356 -47.251325 C -19.5532 -32.587262 -9.775856 -16.294294 0.0014875 -0.001325 Z M 0.0014875 -0.001325 " transform="matrix(1, 0, 0, -1, 759.3657, 593.1393)"/>
<g clip-path="url(#clip-6)">
<path fill="none" stroke-width="1.629" stroke-linecap="butt" stroke-linejoin="miter" stroke="rgb(100%, 100%, 100%)" stroke-opacity="1" stroke-miterlimit="10" d="M 0.0010875 0.00051875 C -45.620006 -39.10495 -115.682506 -50.507294 -166.190319 -13.034638 C -193.889537 8.14505 -216.702037 32.586456 -250.916881 40.734894 C -257.432506 42.3638 -262.323131 43.992706 -268.838756 45.621612 C -316.088756 52.137237 -363.338756 42.3638 -402.444225 14.664581 C -355.194225 42.3638 -294.909069 45.621612 -246.030162 19.5513 C -223.217662 6.516144 -208.5536 -11.405731 -193.889537 -30.956513 C -148.268444 -84.726044 -66.8036 -89.612763 -8.14735 -58.655731 C -3.260631 -39.10495 -3.260631 -19.550263 0.0010875 0.00051875 Z M 0.0010875 0.00051875 " transform="matrix(1, 0, 0, -1, 806.6161, 418.8013)"/>
</g>
<g clip-path="url(#clip-7)">
<path fill="none" stroke-width="1.629" stroke-linecap="butt" stroke-linejoin="miter" stroke="rgb(100%, 100%, 100%)" stroke-opacity="1" stroke-miterlimit="10" d="M -0.000025 -0.000525 C -22.812525 -35.844275 -58.656275 -60.285681 -101.019556 -70.059119 C -133.605494 -76.57865 -166.191431 -68.430213 -195.519556 -57.027869 C -210.183619 -50.508338 -228.105494 -48.879431 -244.398462 -50.508338 C -299.7969 -55.395056 -350.304712 -91.242713 -376.375025 -140.121619 C -361.710962 -117.313025 -340.531275 -101.01615 -317.718775 -86.352088 C -285.132837 -68.430213 -247.656275 -68.430213 -211.812525 -78.207556 C -174.339869 -99.387244 -131.976587 -114.051306 -87.9844 -105.906775 C -81.464869 -104.277869 -76.57815 -102.648963 -70.062525 -101.01615 C -37.476587 -92.871619 -8.148462 -74.949744 14.664038 -50.508338 C 8.148413 -34.215369 6.5156 -16.293494 -0.000025 -0.000525 Z M -0.000025 -0.000525 " transform="matrix(1, 0, 0, -1, 780.5469, 264.0151)"/>
</g>
<path fill="none" stroke-width="1.629" stroke-linecap="butt" stroke-linejoin="miter" stroke="rgb(100%, 100%, 100%)" stroke-opacity="1" stroke-miterlimit="10" d="M 0.001925 -0.00074375 C -14.662137 -57.024181 -58.654325 -107.5359 -117.310575 -117.313244 C -169.4512 -117.313244 -219.959012 -135.235119 -252.54495 -177.5984 C -255.802762 -182.485119 -259.064481 -187.371837 -263.9512 -192.262462 C -281.873075 -218.328869 -290.021512 -247.656994 -293.279325 -276.985119 C -283.501981 -223.219494 -247.658231 -172.707775 -193.8887 -154.7859 C -189.001981 -153.156994 -184.115262 -151.528087 -179.224637 -149.899181 C -148.267606 -145.008556 -120.568387 -151.528087 -91.240262 -146.641369 C -84.724637 -145.008556 -79.837919 -143.37965 -73.318387 -141.750744 C -24.439481 -127.086681 11.404269 -89.614025 32.587863 -43.992931 C 21.181613 -29.328869 11.404269 -14.664806 0.001925 -0.00074375 Z M 0.001925 -0.00074375 " transform="matrix(1, 0, 0, -1, 697.4512, 127.1516)"/>
<path fill="none" stroke-width="1.629" stroke-linecap="butt" stroke-linejoin="miter" stroke="rgb(100%, 100%, 100%)" stroke-opacity="1" stroke-miterlimit="10" d="M 0.0000125 0.001275 C 14.664075 -52.13935 3.257825 -112.424506 -42.363269 -148.268256 C -73.3203 -169.45185 -104.277331 -184.115913 -127.089831 -215.072944 C -159.675769 -263.95185 -166.191394 -320.979194 -149.898425 -374.744819 C -161.304675 -324.237006 -151.527331 -270.467475 -115.683581 -229.7331 C -112.425769 -226.475288 -107.535144 -223.217475 -104.277331 -218.330756 C -97.761706 -213.440131 -91.242175 -208.553413 -84.72655 -203.666694 C -60.285144 -190.631538 -34.214831 -187.373725 -11.406238 -169.45185 C 14.664075 -148.268256 32.58595 -123.830756 42.363294 -92.873725 C 43.9922 -86.354194 45.621106 -81.467475 47.250012 -74.947944 C 50.507825 -58.654975 50.507825 -42.362006 50.507825 -26.069038 C 34.214856 -17.924506 17.921887 -8.147163 0.0000125 0.001275 Z M 0.0000125 0.001275 " transform="matrix(1, 0, 0, -1, 554.0703, 29.3919)"/>
</g>
</defs>
<g>
<use xlink:href="#source-5" transform="matrix(1, 0, 0, 1, 147, 139)"/>
</g>
</svg>
